<svg width="167" height="28" viewBox="0 0 167 28" fill="none" xmlns="http://www.w3.org/2000/svg">
<path d="M12.1932 0.818181H15.3636V19.5341C15.3636 21.2045 15.0568 22.6236 14.4432 23.7912C13.8295 24.9588 12.9645 25.8452 11.848 26.4503C10.7315 27.0554 9.41477 27.358 7.89773 27.358C6.46591 27.358 5.19176 27.098 4.07528 26.5781C2.95881 26.0497 2.08097 25.2997 1.44176 24.3281C0.802557 23.3565 0.482955 22.2017 0.482955 20.8636H3.60227C3.60227 21.6051 3.78551 22.2528 4.15199 22.8068C4.52699 23.3523 5.03835 23.7784 5.68608 24.0852C6.33381 24.392 7.07102 24.5455 7.89773 24.5455C8.80966 24.5455 9.58523 24.3537 10.2244 23.9702C10.8636 23.5866 11.3494 23.0241 11.6818 22.2827C12.0227 21.5327 12.1932 20.6165 12.1932 19.5341V0.818181ZM29.2855 27.4091C27.5128 27.4091 25.9574 26.9872 24.6193 26.1435C23.2898 25.2997 22.25 24.1193 21.5 22.6023C20.7585 21.0852 20.3878 19.3125 20.3878 17.2841C20.3878 15.2386 20.7585 13.4531 21.5 11.9276C22.25 10.402 23.2898 9.21733 24.6193 8.37358C25.9574 7.52983 27.5128 7.10795 29.2855 7.10795C31.0582 7.10795 32.6094 7.52983 33.9389 8.37358C35.277 9.21733 36.3168 10.402 37.0582 11.9276C37.8082 13.4531 38.1832 15.2386 38.1832 17.2841C38.1832 19.3125 37.8082 21.0852 37.0582 22.6023C36.3168 24.1193 35.277 25.2997 33.9389 26.1435C32.6094 26.9872 31.0582 27.4091 29.2855 27.4091ZM29.2855 24.6989C30.6321 24.6989 31.7401 24.3537 32.6094 23.6634C33.4787 22.973 34.1222 22.0653 34.5398 20.9403C34.9574 19.8153 35.1662 18.5966 35.1662 17.2841C35.1662 15.9716 34.9574 14.7486 34.5398 13.6151C34.1222 12.4815 33.4787 11.5653 32.6094 10.8665C31.7401 10.1676 30.6321 9.81818 29.2855 9.81818C27.9389 9.81818 26.831 10.1676 25.9616 10.8665C25.0923 11.5653 24.4489 12.4815 24.0312 13.6151C23.6136 14.7486 23.4048 15.9716 23.4048 17.2841C23.4048 18.5966 23.6136 19.8153 24.0312 20.9403C24.4489 22.0653 25.0923 22.973 25.9616 23.6634C26.831 24.3537 27.9389 24.6989 29.2855 24.6989ZM43.1978 27V0.818181H46.2148V10.483H46.4705C46.6921 10.142 46.9989 9.70739 47.391 9.17898C47.7915 8.64205 48.3626 8.16477 49.104 7.74716C49.854 7.32102 50.8683 7.10795 52.1467 7.10795C53.8001 7.10795 55.2575 7.52131 56.5188 8.34801C57.7802 9.17472 58.7646 10.3466 59.4719 11.8636C60.1793 13.3807 60.533 15.1705 60.533 17.233C60.533 19.3125 60.1793 21.1151 59.4719 22.6406C58.7646 24.1577 57.7844 25.3338 56.5316 26.169C55.2788 26.9957 53.8342 27.4091 52.1978 27.4091C50.9364 27.4091 49.9265 27.2003 49.168 26.7827C48.4094 26.3565 47.8256 25.875 47.4165 25.3381C47.0075 24.7926 46.6921 24.3409 46.4705 23.983H46.1126V27H43.1978ZM46.1637 17.1818C46.1637 18.6648 46.381 19.973 46.8157 21.1065C47.2504 22.2315 47.8853 23.1136 48.7205 23.7528C49.5558 24.3835 50.5785 24.6989 51.7887 24.6989C53.0501 24.6989 54.1026 24.3665 54.9464 23.7017C55.7987 23.0284 56.4379 22.125 56.864 20.9915C57.2987 19.8494 57.516 18.5795 57.516 17.1818C57.516 15.8011 57.3029 14.5568 56.8768 13.4489C56.4592 12.3324 55.8242 11.4503 54.9719 10.8026C54.1282 10.1463 53.0671 9.81818 51.7887 9.81818C50.5614 9.81818 49.5302 10.1293 48.695 10.7514C47.8597 11.3651 47.229 12.2259 46.8029 13.3338C46.3768 14.4332 46.1637 15.7159 46.1637 17.1818ZM65.5572 27V0.818181H68.7276V12.4773H82.6879V0.818181H85.8583V27H82.6879V15.2898H68.7276V27H65.5572ZM104.172 18.9716V7.36364H107.189V27H104.172V23.6761H103.967C103.507 24.6733 102.791 25.5213 101.819 26.2202C100.848 26.9105 99.6204 27.2557 98.1374 27.2557C96.9102 27.2557 95.8192 26.9872 94.8647 26.4503C93.9102 25.9048 93.1602 25.0866 92.6147 23.9957C92.0692 22.8963 91.7965 21.5114 91.7965 19.8409V7.36364H94.8136V19.6364C94.8136 21.0682 95.2141 22.2102 96.0153 23.0625C96.8249 23.9148 97.8562 24.3409 99.109 24.3409C99.859 24.3409 100.622 24.1491 101.397 23.7656C102.181 23.3821 102.838 22.794 103.366 22.0014C103.903 21.2088 104.172 20.1989 104.172 18.9716ZM115.732 15.1875V27H112.714V7.36364H115.629V10.4318H115.885C116.345 9.43466 117.044 8.63352 117.982 8.02841C118.919 7.41477 120.129 7.10795 121.612 7.10795C122.942 7.10795 124.105 7.38068 125.102 7.92614C126.099 8.46307 126.875 9.28125 127.429 10.3807C127.983 11.4716 128.26 12.8523 128.26 14.5227V27H125.243V14.7273C125.243 13.1847 124.842 11.983 124.041 11.1222C123.24 10.2528 122.141 9.81818 120.743 9.81818C119.78 9.81818 118.919 10.027 118.161 10.4446C117.411 10.8622 116.818 11.4716 116.384 12.2727C115.949 13.0739 115.732 14.0455 115.732 15.1875ZM142.313 7.36364V9.92045H132.137V7.36364H142.313ZM135.103 2.65909H138.12V21.375C138.12 22.2273 138.243 22.8665 138.49 23.2926C138.746 23.7102 139.07 23.9915 139.462 24.1364C139.863 24.2727 140.284 24.3409 140.728 24.3409C141.06 24.3409 141.333 24.3239 141.546 24.2898C141.759 24.2472 141.929 24.2131 142.057 24.1875L142.671 26.8977C142.466 26.9744 142.181 27.0511 141.814 27.1278C141.448 27.2131 140.983 27.2557 140.421 27.2557C139.569 27.2557 138.733 27.0724 137.915 26.706C137.105 26.3395 136.432 25.7812 135.895 25.0312C135.367 24.2812 135.103 23.3352 135.103 22.1932V2.65909ZM148.794 0.818181L155.544 11.7102H155.749L162.499 0.818181H166.232L157.999 13.9091L166.232 27H162.499L155.749 16.3125H155.544L148.794 27H145.061L153.499 13.9091L145.061 0.818181H148.794Z" fill="#6E6DA2"/>
<path d="M12.1932 0.818181V-0.181819H11.1932V0.818181H12.1932ZM15.3636 0.818181H16.3636V-0.181819H15.3636V0.818181ZM14.4432 23.7912L15.3284 24.2564L15.3284 24.2564L14.4432 23.7912ZM11.848 26.4503L12.3245 27.3295L12.3245 27.3295L11.848 26.4503ZM4.07528 26.5781L3.64749 27.482L3.65316 27.4847L4.07528 26.5781ZM1.44176 24.3281L0.606344 24.8777L0.606344 24.8777L1.44176 24.3281ZM0.482955 20.8636V19.8636H-0.517045V20.8636H0.482955ZM3.60227 20.8636H4.60227V19.8636H3.60227V20.8636ZM4.15199 22.8068L3.31797 23.3586L3.32289 23.366L3.32795 23.3733L4.15199 22.8068ZM5.68608 24.0852L6.11417 23.1815L6.11417 23.1815L5.68608 24.0852ZM10.2244 23.9702L9.70994 23.1127L9.70994 23.1127L10.2244 23.9702ZM11.6818 22.2827L10.7714 21.8689L10.7693 21.8736L11.6818 22.2827ZM12.1932 1.81818H15.3636V-0.181819H12.1932V1.81818ZM14.3636 0.818181V19.5341H16.3636V0.818181H14.3636ZM14.3636 19.5341C14.3636 21.0846 14.0788 22.335 13.558 23.326L15.3284 24.2564C16.0349 22.9121 16.3636 21.3245 16.3636 19.5341H14.3636ZM13.558 23.326C13.0328 24.3253 12.3067 25.0642 11.3715 25.5711L12.3245 27.3295C13.6222 26.6261 14.6263 25.5923 15.3284 24.2564L13.558 23.326ZM11.3715 25.5711C10.4273 26.0828 9.28065 26.358 7.89773 26.358V28.358C9.54889 28.358 11.0357 28.0279 12.3245 27.3295L11.3715 25.5711ZM7.89773 26.358C6.58817 26.358 5.46185 26.1207 4.49741 25.6716L3.65316 27.4847C4.92167 28.0753 6.34365 28.358 7.89773 28.358V26.358ZM4.50307 25.6742C3.54166 25.2192 2.80924 24.5872 2.27718 23.7785L0.606344 24.8777C1.35269 26.0122 2.37595 26.8802 3.64749 27.482L4.50307 25.6742ZM2.27718 23.7785C1.76081 22.9936 1.48295 22.0365 1.48295 20.8636H-0.517045C-0.517045 22.3669 -0.155697 23.7194 0.606344 24.8777L2.27718 23.7785ZM0.482955 21.8636H3.60227V19.8636H0.482955V21.8636ZM2.60227 20.8636C2.60227 21.7777 2.83088 22.6223 3.31797 23.3586L4.98601 22.2551C4.74014 21.8834 4.60227 21.4325 4.60227 20.8636H2.60227ZM3.32795 23.3733C3.81109 24.0761 4.46447 24.6131 5.25799 24.989L6.11417 23.1815C5.61223 22.9437 5.24289 22.6284 4.97603 22.2403L3.32795 23.3733ZM5.25799 24.989C6.05861 25.3682 6.94564 25.5455 7.89773 25.5455V23.5455C7.19641 23.5455 6.609 23.4159 6.11417 23.1815L5.25799 24.989ZM7.89773 25.5455C8.95049 25.5455 9.91297 25.3232 10.7389 24.8277L9.70994 23.1127C9.25749 23.3841 8.66883 23.5455 7.89773 23.5455V25.5455ZM10.7389 24.8277C11.5694 24.3294 12.1862 23.6022 12.5943 22.6917L10.7693 21.8736C10.5127 22.4461 10.1578 22.8439 9.70994 23.1127L10.7389 24.8277ZM12.5922 22.6965C13.0076 21.7825 13.1932 20.7164 13.1932 19.5341H11.1932C11.1932 20.5165 11.0378 21.2828 10.7715 21.8689L12.5922 22.6965ZM13.1932 19.5341V0.818181H11.1932V19.5341H13.1932ZM24.6193 26.1435L24.0835 26.9878L24.0859 26.9893L24.6193 26.1435ZM21.5 22.6023L20.6016 23.0414L20.6036 23.0455L21.5 22.6023ZM21.5 11.9276L20.6026 11.4864L20.6006 11.4904L21.5 11.9276ZM24.6193 8.37358L24.0859 7.5277L24.0835 7.52925L24.6193 8.37358ZM33.9389 8.37358L33.4031 9.21791L33.4055 9.21945L33.9389 8.37358ZM37.0582 11.9276L36.1588 12.3647L36.1608 12.3687L37.0582 11.9276ZM37.0582 22.6023L36.1618 22.1591L36.1598 22.1632L37.0582 22.6023ZM33.9389 26.1435L33.4055 25.2976L33.4031 25.2991L33.9389 26.1435ZM32.6094 23.6634L31.9875 22.8802L31.9875 22.8802L32.6094 23.6634ZM34.5398 20.9403L35.4773 21.2883L35.4773 21.2883L34.5398 20.9403ZM34.5398 13.6151L35.4781 13.2694L35.4781 13.2694L34.5398 13.6151ZM32.6094 10.8665L33.2359 10.0871L33.2359 10.0871L32.6094 10.8665ZM25.9616 10.8665L25.3351 10.0871L25.3351 10.0871L25.9616 10.8665ZM24.0312 13.6151L23.0929 13.2694L23.0929 13.2694L24.0312 13.6151ZM24.0312 20.9403L23.0938 21.2883L23.0938 21.2883L24.0312 20.9403ZM25.9616 23.6634L26.5835 22.8802L26.5835 22.8802L25.9616 23.6634ZM29.2855 26.4091C27.6781 26.4091 26.3123 26.0288 25.1527 25.2976L24.0859 26.9893C25.6024 27.9456 27.3475 28.4091 29.2855 28.4091V26.4091ZM25.1551 25.2991C23.9919 24.5609 23.0715 23.5247 22.3964 22.1591L20.6036 23.0455C21.4285 24.714 22.5877 26.0385 24.0835 26.9878L25.1551 25.2991ZM22.3984 22.1632C21.7359 20.8077 21.3878 19.1906 21.3878 17.2841H19.3878C19.3878 19.4344 19.7811 21.3628 20.6016 23.0414L22.3984 22.1632ZM21.3878 17.2841C21.3878 15.3593 21.7364 13.7289 22.3994 12.3647L20.6006 11.4904C19.7807 13.1774 19.3878 15.1179 19.3878 17.2841H21.3878ZM22.3974 12.3687C23.073 10.9946 23.9933 9.95526 25.1551 9.21791L24.0835 7.52925C22.5863 8.4794 21.427 9.80935 20.6026 11.4864L22.3974 12.3687ZM25.1527 9.21945C26.3123 8.48822 27.6781 8.10795 29.2855 8.10795V6.10795C27.3475 6.10795 25.6024 6.57144 24.0859 7.52771L25.1527 9.21945ZM29.2855 8.10795C30.893 8.10795 32.2533 8.48825 33.4031 9.21791L34.4747 7.52925C32.9654 6.57141 31.2234 6.10795 29.2855 6.10795V8.10795ZM33.4055 9.21945C34.5744 9.95651 35.4927 10.9942 36.1588 12.3647L37.9576 11.4904C37.1408 9.80977 35.9796 8.47814 34.4723 7.52771L33.4055 9.21945ZM36.1608 12.3687C36.831 13.7319 37.1832 15.3609 37.1832 17.2841H39.1832C39.1832 15.1164 38.7855 13.1743 37.9557 11.4864L36.1608 12.3687ZM37.1832 17.2841C37.1832 19.189 36.8315 20.8046 36.1618 22.1591L37.9547 23.0455C38.785 21.3659 39.1832 19.436 39.1832 17.2841H37.1832ZM36.1598 22.1632C35.4942 23.5251 34.5758 24.5596 33.4055 25.2976L34.4723 26.9893C35.9782 26.0398 37.1394 24.7136 37.9567 23.0414L36.1598 22.1632ZM33.4031 25.2991C32.2533 26.0288 30.893 26.4091 29.2855 26.4091V28.4091C31.2234 28.4091 32.9654 27.9456 34.4747 26.9878L33.4031 25.2991ZM29.2855 25.6989C30.8083 25.6989 32.1498 25.3053 33.2313 24.4465L31.9875 22.8802C31.3304 23.4021 30.4559 23.6989 29.2855 23.6989V25.6989ZM33.2313 24.4465C34.2551 23.6334 35.0015 22.5701 35.4773 21.2883L33.6023 20.5923C33.2429 21.5606 32.7023 22.3126 31.9875 22.8802L33.2313 24.4465ZM35.4773 21.2883C35.9399 20.042 36.1662 18.7042 36.1662 17.2841H34.1662C34.1662 18.4889 33.9748 19.5887 33.6023 20.5923L35.4773 21.2883ZM36.1662 17.2841C36.1662 15.8638 35.9399 14.5228 35.4781 13.2694L33.6014 13.9608C33.9749 14.9744 34.1662 16.0793 34.1662 17.2841H36.1662ZM35.4781 13.2694C35.0032 11.9803 34.2582 10.909 33.2359 10.0871L31.9828 11.6459C32.6991 12.2217 33.2411 12.9828 33.6014 13.9608L35.4781 13.2694ZM33.2359 10.0871C32.1543 9.21756 30.8111 8.81818 29.2855 8.81818V10.8182C30.4531 10.8182 31.3258 11.1177 31.9828 11.6459L33.2359 10.0871ZM29.2855 8.81818C27.7599 8.81818 26.4167 9.21756 25.3351 10.0871L26.5882 11.6459C27.2452 11.1177 28.1179 10.8182 29.2855 10.8182V8.81818ZM25.3351 10.0871C24.3128 10.909 23.5678 11.9803 23.0929 13.2694L24.9696 13.9608C25.3299 12.9828 25.8719 12.2217 26.5882 11.6459L25.3351 10.0871ZM23.0929 13.2694C22.6311 14.5228 22.4048 15.8638 22.4048 17.2841H24.4048C24.4048 16.0793 24.5962 14.9744 24.9696 13.9608L23.0929 13.2694ZM22.4048 17.2841C22.4048 18.7042 22.6311 20.042 23.0938 21.2883L24.9687 20.5923C24.5962 19.5887 24.4048 18.4889 24.4048 17.2841H22.4048ZM23.0938 21.2883C23.5696 22.5701 24.316 23.6334 25.3398 24.4465L26.5835 22.8802C25.8687 22.3126 25.3282 21.5606 24.9687 20.5923L23.0938 21.2883ZM25.3398 24.4465C26.4213 25.3053 27.7627 25.6989 29.2855 25.6989V23.6989C28.1151 23.6989 27.2407 23.4021 26.5835 22.8802L25.3398 24.4465ZM43.1978 27H42.1978V28H43.1978V27ZM43.1978 0.818181V-0.181819H42.1978V0.818181H43.1978ZM46.2148 0.818181H47.2148V-0.181819H46.2148V0.818181ZM46.2148 10.483H45.2148V11.483H46.2148V10.483ZM46.4705 10.483V11.483H47.0132L47.309 11.0279L46.4705 10.483ZM47.391 9.17898L46.5895 8.58101L46.5879 8.58313L47.391 9.17898ZM49.104 7.74716L49.5948 8.61847L49.5981 8.61662L49.104 7.74716ZM56.5188 8.34801L57.067 7.51164L57.067 7.51164L56.5188 8.34801ZM59.4719 22.6406L60.3783 23.0632L60.3792 23.0613L59.4719 22.6406ZM56.5316 26.169L57.0824 27.0037L57.0863 27.0011L56.5316 26.169ZM49.168 26.7827L48.6782 27.6545L48.6857 27.6587L49.168 26.7827ZM47.4165 25.3381L46.6165 25.9381L46.6211 25.9441L47.4165 25.3381ZM46.4705 23.983L47.3208 23.4566L47.0276 22.983H46.4705V23.983ZM46.1126 23.983V22.983H45.1126V23.983H46.1126ZM46.1126 27V28H47.1126V27H46.1126ZM46.8157 21.1065L45.882 21.4646L45.8829 21.4669L46.8157 21.1065ZM48.7205 23.7528L48.1128 24.547L48.1179 24.5509L48.7205 23.7528ZM54.9464 23.7017L55.5653 24.4872L55.5663 24.4864L54.9464 23.7017ZM56.864 20.9915L55.9294 20.6358L55.928 20.6396L56.864 20.9915ZM56.8768 13.4489L55.9401 13.7992L55.9434 13.8078L56.8768 13.4489ZM54.9719 10.8026L54.358 11.592L54.3669 11.5987L54.9719 10.8026ZM48.695 10.7514L49.287 11.5573L49.2923 11.5534L48.695 10.7514ZM46.8029 13.3338L47.7353 13.6952L47.7363 13.6928L46.8029 13.3338ZM44.1978 27V0.818181H42.1978V27H44.1978ZM43.1978 1.81818H46.2148V-0.181819H43.1978V1.81818ZM45.2148 0.818181V10.483H47.2148V0.818181H45.2148ZM46.2148 11.483H46.4705V9.48295H46.2148V11.483ZM47.309 11.0279C47.5146 10.7116 47.8078 10.2954 48.1941 9.77482L46.5879 8.58313C46.19 9.11936 45.8696 9.57253 45.6321 9.93797L47.309 11.0279ZM48.1925 9.77694C48.4904 9.37767 48.9432 8.98548 49.5948 8.61847L48.6133 6.87585C47.782 7.34407 47.0927 7.90642 46.5895 8.58101L48.1925 9.77694ZM49.5981 8.61662C50.142 8.30757 50.9639 8.10795 52.1467 8.10795V6.10795C50.7726 6.10795 49.5661 6.33448 48.61 6.8777L49.5981 8.61662ZM52.1467 8.10795C53.6248 8.10795 54.8878 8.47466 55.9707 9.18438L57.067 7.51164C55.6271 6.56796 53.9753 6.10795 52.1467 6.10795V8.10795ZM55.9707 9.18438C57.0598 9.89819 57.9279 10.9186 58.5656 12.2862L60.3783 11.441C59.6012 9.77454 58.5006 8.45125 57.067 7.51164L55.9707 9.18438ZM58.5656 12.2862C59.1987 13.6439 59.533 15.2834 59.533 17.233H61.533C61.533 15.0576 61.16 13.1175 60.3783 11.441L58.5656 12.2862ZM59.533 17.233C59.533 19.2007 59.1983 20.8536 58.5647 22.22L60.3792 23.0613C61.1604 21.3765 61.533 19.4243 61.533 17.233H59.533ZM58.5656 22.218C57.9268 23.588 57.0606 24.6145 55.9769 25.337L57.0863 27.0011C58.5083 26.0531 59.6023 24.7273 60.3783 23.0632L58.5656 22.218ZM55.9808 25.3344C54.9062 26.0435 53.6568 26.4091 52.1978 26.4091V28.4091C54.0116 28.4091 55.6514 27.948 57.0824 27.0037L55.9808 25.3344ZM52.1978 26.4091C51.0333 26.4091 50.2088 26.2142 49.6503 25.9067L48.6857 27.6587C49.6442 28.1864 50.8396 28.4091 52.1978 28.4091V26.4091ZM49.6578 25.9108C48.9853 25.533 48.5182 25.134 48.212 24.732L46.6211 25.9441C47.1331 26.616 47.8336 27.18 48.6782 27.6545L49.6578 25.9108ZM48.2165 24.7381C47.8158 24.2038 47.5202 23.7787 47.3208 23.4566L45.6203 24.5093C45.864 24.9031 46.1991 25.3814 46.6165 25.9381L48.2165 24.7381ZM46.4705 22.983H46.1126V24.983H46.4705V22.983ZM45.1126 23.983V27H47.1126V23.983H45.1126ZM46.1126 26H43.1978V28H46.1126V26ZM45.1637 17.1818C45.1637 18.7609 45.395 20.1946 45.882 21.4646L47.7494 20.7485C47.3671 19.7515 47.1637 18.5687 47.1637 17.1818H45.1637ZM45.8829 21.4669C46.374 22.738 47.1109 23.7802 48.1128 24.547L49.3283 22.9587C48.6597 22.447 48.1267 21.7251 47.7485 20.7461L45.8829 21.4669ZM48.1179 24.5509C49.153 25.3325 50.3964 25.6989 51.7887 25.6989V23.6989C50.7606 23.6989 49.9585 23.4346 49.3231 22.9548L48.1179 24.5509ZM51.7887 25.6989C53.2338 25.6989 54.5156 25.3142 55.5653 24.4872L54.3275 22.9162C53.6897 23.4188 52.8663 23.6989 51.7887 23.6989V25.6989ZM55.5663 24.4864C56.5773 23.6877 57.3174 22.6271 57.8 21.3434L55.928 20.6396C55.5583 21.6229 55.02 22.3692 54.3265 22.917L55.5663 24.4864ZM57.7986 21.3472C58.2822 20.0764 58.516 18.6838 58.516 17.1818H56.516C56.516 18.4753 56.3151 19.6224 55.9294 20.6358L57.7986 21.3472ZM58.516 17.1818C58.516 15.6981 58.2869 14.3294 57.8101 13.0899L55.9434 13.8078C56.3189 14.7842 56.516 15.9042 56.516 17.1818H58.516ZM57.8134 13.0985C57.3374 11.8258 56.5964 10.7811 55.577 10.0064L54.3669 11.5987C55.052 12.1194 55.581 12.8389 55.9402 13.7992L57.8134 13.0985ZM55.5859 10.0132C54.5341 9.19512 53.2444 8.81818 51.7887 8.81818V10.8182C52.8898 10.8182 53.7223 11.0975 54.358 11.5919L55.5859 10.0132ZM51.7887 8.81818C50.3859 8.81818 49.1347 9.17688 48.0976 9.94946L49.2923 11.5534C49.9256 11.0816 50.737 10.8182 51.7887 10.8182V8.81818ZM48.1029 9.94554C47.092 10.6882 46.3541 11.7149 45.8696 12.9748L47.7363 13.6928C48.104 12.7368 48.6274 12.0419 49.287 11.5573L48.1029 9.94554ZM45.8705 12.9724C45.3903 14.2113 45.1637 15.6213 45.1637 17.1818H47.1637C47.1637 15.8105 47.3633 14.6551 47.7353 13.6952L45.8705 12.9724ZM65.5572 27H64.5572V28H65.5572V27ZM65.5572 0.818181V-0.181819H64.5572V0.818181H65.5572ZM68.7276 0.818181H69.7276V-0.181819H68.7276V0.818181ZM68.7276 12.4773H67.7276V13.4773H68.7276V12.4773ZM82.6879 12.4773V13.4773H83.6879V12.4773H82.6879ZM82.6879 0.818181V-0.181819H81.6879V0.818181H82.6879ZM85.8583 0.818181H86.8583V-0.181819H85.8583V0.818181ZM85.8583 27V28H86.8583V27H85.8583ZM82.6879 27H81.6879V28H82.6879V27ZM82.6879 15.2898H83.6879V14.2898H82.6879V15.2898ZM68.7276 15.2898V14.2898H67.7276V15.2898H68.7276ZM68.7276 27V28H69.7276V27H68.7276ZM66.5572 27V0.818181H64.5572V27H66.5572ZM65.5572 1.81818H68.7276V-0.181819H65.5572V1.81818ZM67.7276 0.818181V12.4773H69.7276V0.818181H67.7276ZM68.7276 13.4773H82.6879V11.4773H68.7276V13.4773ZM83.6879 12.4773V0.818181H81.6879V12.4773H83.6879ZM82.6879 1.81818H85.8583V-0.181819H82.6879V1.81818ZM84.8583 0.818181V27H86.8583V0.818181H84.8583ZM85.8583 26H82.6879V28H85.8583V26ZM83.6879 27V15.2898H81.6879V27H83.6879ZM82.6879 14.2898H68.7276V16.2898H82.6879V14.2898ZM67.7276 15.2898V27H69.7276V15.2898H67.7276ZM68.7276 26H65.5572V28H68.7276V26ZM104.172 7.36364V6.36364H103.172V7.36364H104.172ZM107.189 7.36364H108.189V6.36364H107.189V7.36364ZM107.189 27V28H108.189V27H107.189ZM104.172 27H103.172V28H104.172V27ZM104.172 23.6761H105.172V22.6761H104.172V23.6761ZM103.967 23.6761V22.6761H103.327L103.059 23.2571L103.967 23.6761ZM101.819 26.2202L102.398 27.0354L102.403 27.032L101.819 26.2202ZM94.8647 26.4503L94.3686 27.3185L94.3744 27.3219L94.8647 26.4503ZM92.6147 23.9957L91.7189 24.4402L91.7203 24.443L92.6147 23.9957ZM91.7965 7.36364V6.36364H90.7965V7.36364H91.7965ZM94.8136 7.36364H95.8136V6.36364H94.8136V7.36364ZM96.0153 23.0625L95.2866 23.7474L95.2903 23.7512L96.0153 23.0625ZM101.397 23.7656L100.958 22.8673L100.954 22.8692L101.397 23.7656ZM103.366 22.0014L102.538 21.4406L102.534 21.4467L103.366 22.0014ZM105.172 18.9716V7.36364H103.172V18.9716H105.172ZM104.172 8.36364H107.189V6.36364H104.172V8.36364ZM106.189 7.36364V27H108.189V7.36364H106.189ZM107.189 26H104.172V28H107.189V26ZM105.172 27V23.6761H103.172V27H105.172ZM104.172 22.6761H103.967V24.6761H104.172V22.6761ZM103.059 23.2571C102.677 24.0837 102.08 24.801 101.235 25.4084L102.403 27.032C103.502 26.2416 104.336 25.2629 104.875 24.0952L103.059 23.2571ZM101.24 25.405C100.475 25.9485 99.464 26.2557 98.1374 26.2557V28.2557C99.7767 28.2557 101.22 27.8725 102.398 27.0354L101.24 25.405ZM98.1374 26.2557C97.0608 26.2557 96.1424 26.0217 95.355 25.5787L94.3744 27.3219C95.4961 27.9528 96.7595 28.2557 98.1374 28.2557V26.2557ZM95.3608 25.582C94.5962 25.1451 93.9763 24.4829 93.5091 23.5485L91.7203 24.443C92.344 25.6904 93.2241 26.6646 94.3686 27.3185L95.3608 25.582ZM93.5105 23.5513C93.0537 22.6306 92.7965 21.41 92.7965 19.8409H90.7965C90.7965 21.6127 91.0848 23.162 91.7189 24.4402L93.5105 23.5513ZM92.7965 19.8409V7.36364H90.7965V19.8409H92.7965ZM91.7965 8.36364H94.8136V6.36364H91.7965V8.36364ZM93.8136 7.36364V19.6364H95.8136V7.36364H93.8136ZM93.8136 19.6364C93.8136 21.2626 94.274 22.6701 95.2866 23.7474L96.7439 22.3776C96.1543 21.7504 95.8136 20.8738 95.8136 19.6364H93.8136ZM95.2903 23.7512C96.3022 24.8164 97.6022 25.3409 99.109 25.3409V23.3409C98.1101 23.3409 97.3477 23.0131 96.7403 22.3738L95.2903 23.7512ZM99.109 25.3409C100.035 25.3409 100.948 25.1032 101.841 24.662L100.954 22.8692C100.295 23.1951 99.6833 23.3409 99.109 23.3409V25.3409ZM101.837 24.6639C102.794 24.1956 103.581 23.4821 104.198 22.5561L102.534 21.4467C102.095 22.1059 101.569 22.5686 100.958 22.8673L101.837 24.6639ZM104.194 22.5623C104.871 21.5631 105.172 20.3427 105.172 18.9716H103.172C103.172 20.055 102.935 20.8545 102.538 21.4406L104.194 22.5623ZM115.732 27V28H116.732V27H115.732ZM112.714 27H111.714V28H112.714V27ZM112.714 7.36364V6.36364H111.714V7.36364H112.714ZM115.629 7.36364H116.629V6.36364H115.629V7.36364ZM115.629 10.4318H114.629V11.4318H115.629V10.4318ZM115.885 10.4318V11.4318H116.525L116.793 10.8509L115.885 10.4318ZM117.982 8.02841L118.524 8.86861L118.529 8.86511L117.982 8.02841ZM125.102 7.92614L124.622 8.80348L124.628 8.80661L125.102 7.92614ZM127.429 10.3807L126.536 10.8307L126.537 10.8335L127.429 10.3807ZM128.26 27V28H129.26V27H128.26ZM125.243 27H124.243V28H125.243V27ZM124.041 11.1222L123.306 11.7998L123.309 11.8034L124.041 11.1222ZM118.161 10.4446L117.678 9.56858L117.674 9.57091L118.161 10.4446ZM116.384 12.2727L115.505 11.7958L115.505 11.7958L116.384 12.2727ZM114.732 15.1875V27H116.732V15.1875H114.732ZM115.732 26H112.714V28H115.732V26ZM113.714 27V7.36364H111.714V27H113.714ZM112.714 8.36364H115.629V6.36364H112.714V8.36364ZM114.629 7.36364V10.4318H116.629V7.36364H114.629ZM115.629 11.4318H115.885V9.43182H115.629V11.4318ZM116.793 10.8509C117.172 10.0288 117.743 9.37259 118.524 8.86859L117.439 7.18823C116.345 7.89445 115.518 8.84049 114.977 10.0128L116.793 10.8509ZM118.529 8.86511C119.259 8.38743 120.262 8.10795 121.612 8.10795V6.10795C119.996 6.10795 118.579 6.44212 117.434 7.19171L118.529 8.86511ZM121.612 8.10795C122.803 8.10795 123.796 8.35119 124.622 8.80346L125.582 7.04881C124.415 6.41018 123.081 6.10795 121.612 6.10795V8.10795ZM124.628 8.80661C125.429 9.23784 126.066 9.89753 126.536 10.8307L128.322 9.9307C127.684 8.66497 126.77 7.68829 125.576 7.04566L124.628 8.80661ZM126.537 10.8335C126.999 11.7424 127.26 12.9551 127.26 14.5227H129.26C129.26 12.7495 128.967 11.2008 128.321 9.9279L126.537 10.8335ZM127.26 14.5227V27H129.26V14.5227H127.26ZM128.26 26H125.243V28H128.26V26ZM126.243 27V14.7273H124.243V27H126.243ZM126.243 14.7273C126.243 13.0129 125.795 11.5386 124.773 10.4409L123.309 11.8034C123.89 12.4274 124.243 13.3564 124.243 14.7273H126.243ZM124.777 10.4445C123.751 9.33217 122.365 8.81818 120.743 8.81818V10.8182C121.917 10.8182 122.729 11.1735 123.306 11.7998L124.777 10.4445ZM120.743 8.81818C119.63 8.81818 118.601 9.06081 117.678 9.56859L118.643 11.3206C119.238 10.9932 119.929 10.8182 120.743 10.8182V8.81818ZM117.674 9.57091C116.748 10.0867 116.024 10.8387 115.505 11.7958L117.262 12.7496C117.612 12.1045 118.073 11.6378 118.647 11.3183L117.674 9.57091ZM115.505 11.7958C114.973 12.7759 114.732 13.9203 114.732 15.1875H116.732C116.732 14.1706 116.925 13.3718 117.262 12.7496L115.505 11.7958ZM142.313 7.36364H143.313V6.36364H142.313V7.36364ZM142.313 9.92045V10.9205H143.313V9.92045H142.313ZM132.137 9.92045H131.137V10.9205H132.137V9.92045ZM132.137 7.36364V6.36364H131.137V7.36364H132.137ZM135.103 2.65909V1.65909H134.103V2.65909H135.103ZM138.12 2.65909H139.12V1.65909H138.12V2.65909ZM138.49 23.2926L137.625 23.7943L137.631 23.8046L137.638 23.8148L138.49 23.2926ZM139.462 24.1364L139.115 25.0744L139.127 25.0788L139.14 25.083L139.462 24.1364ZM141.546 24.2898L141.704 25.2772L141.723 25.2742L141.742 25.2704L141.546 24.2898ZM142.057 24.1875L143.032 23.9667L142.817 23.0157L141.861 23.2069L142.057 24.1875ZM142.671 26.8977L143.022 27.8341L143.839 27.5277L143.646 26.6769L142.671 26.8977ZM141.814 27.1278L141.609 26.1491L141.599 26.1513L141.588 26.1538L141.814 27.1278ZM137.915 26.706L137.503 27.617L137.506 27.6186L137.915 26.706ZM135.895 25.0312L135.078 25.6072L135.082 25.6134L135.895 25.0312ZM141.313 7.36364V9.92045H143.313V7.36364H141.313ZM142.313 8.92045H132.137V10.9205H142.313V8.92045ZM133.137 9.92045V7.36364H131.137V9.92045H133.137ZM132.137 8.36364H142.313V6.36364H132.137V8.36364ZM135.103 3.65909H138.12V1.65909H135.103V3.65909ZM137.12 2.65909V21.375H139.12V2.65909H137.12ZM137.12 21.375C137.12 22.2912 137.247 23.1415 137.625 23.7943L139.355 22.7909C139.24 22.5914 139.12 22.1634 139.12 21.375H137.12ZM137.638 23.8148C137.99 24.3896 138.478 24.8388 139.115 25.0744L139.809 23.1984C139.662 23.1442 139.503 23.0308 139.343 22.7705L137.638 23.8148ZM139.14 25.083C139.649 25.2564 140.18 25.3409 140.728 25.3409V23.3409C140.389 23.3409 140.076 23.2891 139.784 23.1897L139.14 25.083ZM140.728 25.3409C141.088 25.3409 141.419 25.3229 141.704 25.2772L141.388 23.3023C141.247 23.3249 141.032 23.3409 140.728 23.3409V25.3409ZM141.742 25.2704C141.955 25.2277 142.125 25.1936 142.253 25.1681L141.861 23.2069C141.733 23.2325 141.563 23.2666 141.35 23.3092L141.742 25.2704ZM141.082 24.4083L141.695 27.1186L143.646 26.6769L143.032 23.9667L141.082 24.4083ZM142.32 25.9614C142.185 26.0121 141.956 26.0765 141.609 26.1491L142.019 28.1066C142.406 28.0257 142.748 27.9368 143.022 27.8341L142.32 25.9614ZM141.588 26.1538C141.322 26.2156 140.941 26.2557 140.421 26.2557V28.2557C141.026 28.2557 141.573 28.2106 142.041 28.1018L141.588 26.1538ZM140.421 26.2557C139.717 26.2557 139.02 26.1053 138.324 25.7933L137.506 27.6186C138.446 28.0396 139.42 28.2557 140.421 28.2557V26.2557ZM138.327 25.7949C137.684 25.5038 137.147 25.0618 136.708 24.4491L135.082 25.6134C135.717 26.5007 136.527 27.1752 137.503 27.617L138.327 25.7949ZM136.713 24.4553C136.329 23.9112 136.103 23.18 136.103 22.1932H134.103C134.103 23.4905 134.404 24.6513 135.078 25.6072L136.713 24.4553ZM136.103 22.1932V2.65909H134.103V22.1932H136.103ZM148.794 0.818181L149.644 0.291414L149.351 -0.181819H148.794V0.818181ZM155.544 11.7102L154.694 12.237L154.988 12.7102H155.544V11.7102ZM155.749 11.7102V12.7102H156.306L156.599 12.237L155.749 11.7102ZM162.499 0.818181V-0.181819H161.942L161.649 0.291414L162.499 0.818181ZM166.232 0.818181L167.078 1.35056L168.042 -0.181819H166.232V0.818181ZM157.999 13.9091L157.152 13.3767L156.818 13.9091L157.152 14.4415L157.999 13.9091ZM166.232 27V28H168.042L167.078 26.4676L166.232 27ZM162.499 27L161.653 27.534L161.948 28H162.499V27ZM155.749 16.3125L156.594 15.7785L156.3 15.3125H155.749V16.3125ZM155.544 16.3125V15.3125H154.993L154.699 15.7785L155.544 16.3125ZM148.794 27V28H149.346L149.64 27.534L148.794 27ZM145.061 27L144.221 26.4582L143.227 28H145.061V27ZM153.499 13.9091L154.339 14.4508L154.689 13.9091L154.339 13.3673L153.499 13.9091ZM145.061 0.818181V-0.181819H143.227L144.221 1.35993L145.061 0.818181ZM147.944 1.34495L154.694 12.237L156.394 11.1835L149.644 0.291414L147.944 1.34495ZM155.544 12.7102H155.749V10.7102H155.544V12.7102ZM156.599 12.237L163.349 1.34495L161.649 0.291414L154.899 11.1835L156.599 12.237ZM162.499 1.81818H166.232V-0.181819H162.499V1.81818ZM165.385 0.285806L157.152 13.3767L158.845 14.4415L167.078 1.35056L165.385 0.285806ZM157.152 14.4415L165.385 27.5324L167.078 26.4676L158.845 13.3767L157.152 14.4415ZM166.232 26H162.499V28H166.232V26ZM163.344 26.466L156.594 15.7785L154.903 16.8465L161.653 27.534L163.344 26.466ZM155.749 15.3125H155.544V17.3125H155.749V15.3125ZM154.699 15.7785L147.949 26.466L149.64 27.534L156.39 16.8465L154.699 15.7785ZM148.794 26H145.061V28H148.794V26ZM145.902 27.5418L154.339 14.4508L152.658 13.3673L144.221 26.4582L145.902 27.5418ZM154.339 13.3673L145.902 0.276428L144.221 1.35993L152.658 14.4508L154.339 13.3673ZM145.061 1.81818H148.794V-0.181819H145.061V1.81818Z" fill="#6E6DA2"/>
</svg>
